<?xml version="1.0" standalone="no"?><!DOCTYPE svg PUBLIC "-//W3C//DTD SVG 1.1//EN" "http://www.w3.org/Graphics/SVG/1.1/DTD/svg11.dtd"><svg t="1597200287489" class="icon" viewBox="0 0 1024 1024" version="1.1" xmlns="http://www.w3.org/2000/svg" p-id="5171" xmlns:xlink="http://www.w3.org/1999/xlink" width="128" height="128"><defs><style type="text/css"></style></defs><path d="M735.915 170.667a64 64 0 0 1 63.594 56.81L853.333 704h-0.32a120.47 120.47 0 0 1-120.149 129.237H291.136A120.47 120.47 0 0 1 170.986 704h-0.32l53.825-476.523a64 64 0 0 1 63.573-56.81h447.85z m-3.051 485.653H291.136a57.024 57.024 0 0 0-8.79 0.683l1.643-0.235a56.341 56.341 0 0 0-3.456 0.533l1.814-0.298c-1.067 0.149-2.091 0.341-3.115 0.576l1.28-0.278a56.043 56.043 0 0 0-11.136 3.371l1.11-0.47a54.207 54.207 0 0 0-3.222 1.387l2.112-0.917a56.17 56.17 0 0 0-2.667 1.195l0.555-0.278a50.068 50.068 0 0 0-3.2 1.643l2.645-1.365a56.384 56.384 0 0 0-14.848 10.346l1.451-1.365a56.81 56.81 0 0 0-2.325 2.219l0.853-0.854a56.832 56.832 0 0 0-2.133 2.219l1.28-1.365c-0.854 0.874-1.707 1.77-2.496 2.709l1.194-1.344a56.79 56.79 0 0 0-2.026 2.304l0.832-0.96a56.747 56.747 0 0 0-2.006 2.432l1.174-1.472a78.456 78.456 0 0 0-2.518 3.285l1.344-1.813c-0.64 0.853-1.28 1.707-1.877 2.56l0.533-0.747c-0.64 0.875-1.237 1.771-1.813 2.688l1.28-1.941c-0.64 0.939-1.28 1.899-1.856 2.88l0.576-0.939c-0.597 0.96-1.173 1.92-1.707 2.923l1.131-1.984a60.014 60.014 0 0 0-1.813 3.243l0.661-1.259c-0.427 0.768-0.81 1.557-1.216 2.347l0.555-1.088a56.213 56.213 0 0 0-1.451 3.029l0.896-1.92a48.61 48.61 0 0 0-1.707 3.883l0.811-1.963a56.107 56.107 0 0 0-1.173 2.837l0.341-0.874a56.043 56.043 0 0 0-1.11 3.072l0.769-2.198a59.758 59.758 0 0 0-1.174 3.456l0.406-1.258c-0.32 0.96-0.619 1.92-0.875 2.88l0.47-1.622a56.043 56.043 0 0 0-1.003 3.67l0.533-2.048a56.085 56.085 0 0 0-0.832 3.392l0.299-1.344a43.067 43.067 0 0 0-0.64 3.306l0.341-1.962a56.47 56.47 0 0 0 55.296 68.032h441.728a56.47 56.47 0 0 0 54.464-71.424l0.533 2.048a56.043 56.043 0 0 0-1.002-3.67l0.469 1.622a56.021 56.021 0 0 0-0.853-2.88l0.384 1.28a56.043 56.043 0 0 0-1.174-3.478l0.768 2.198a56.043 56.043 0 0 0-1.109-3.072l0.341 0.853a56.107 56.107 0 0 0-1.173-2.816l0.832 1.963a56.15 56.15 0 0 0-1.728-3.904l0.896 1.941a56.213 56.213 0 0 0-1.45-3.03l0.554 1.089a56.32 56.32 0 0 0-1.237-2.347l0.682 1.28a56.363 56.363 0 0 0-1.813-3.264l1.13 1.984a56.427 56.427 0 0 0-1.706-2.923l0.576 0.939a56.533 56.533 0 0 0-1.856-2.88l1.28 1.92a56.576 56.576 0 0 0-1.813-2.667l0.533 0.747a56.661 56.661 0 0 0-1.877-2.56l1.344 1.813a56.704 56.704 0 0 0-2.539-3.285l1.195 1.493a56.747 56.747 0 0 0-1.984-2.453l0.789 0.96a56.79 56.79 0 0 0-2.027-2.325l1.238 1.365a56.81 56.81 0 0 0-2.518-2.688l1.28 1.323a56.832 56.832 0 0 0-2.133-2.198l0.853 0.854a56.81 56.81 0 0 0-2.325-2.219l1.45 1.365a56.747 56.747 0 0 0-14.869-10.368l2.688 1.387a56.277 56.277 0 0 0-3.2-1.621l0.512 0.234a56.17 56.17 0 0 0-2.645-1.194l2.133 0.96a47.242 47.242 0 0 0-3.221-1.387l1.067 0.427a56.043 56.043 0 0 0-11.115-3.35l1.28 0.278a56.235 56.235 0 0 0-3.115-0.576l1.835 0.298a56.341 56.341 0 0 0-3.456-0.533l1.621 0.213a56.896 56.896 0 0 0-8.789-0.661z m-10.027 26.347a30.123 30.123 0 1 1 0 60.245 30.123 30.123 0 0 1 0-60.245z m13.078-448h-447.83l-41.365 366.08a120.15 120.15 0 0 1 44.416-8.427h441.728c15.68 0 30.677 2.987 44.416 8.448l-41.365-366.101z m-95.915 160v64H384v-64h256z" p-id="5172"></path></svg>