<?xml version="1.0" encoding="utf-8"?>
<svg version="1.1" xmlns:xlink="http://www.w3.org/1999/xlink" width="22px" height="22px" xmlns="http://www.w3.org/2000/svg">
  <g transform="matrix(1 0 0 1 -1641 -22 )">
    <path d="M 21.505859375 12.9694010416667  C 21.5965711805556 13.0601128472222  21.6419270833333 13.1675347222222  21.6419270833333 13.2916666666667  C 21.6419270833333 13.3394097222222  21.6371527777778 13.3728298611111  21.6276041666667 13.3919270833333  C 21.0164930555556 15.9509548611111  19.7369791666667 18.025390625  17.7890625 19.615234375  C 15.8411458333333 21.205078125  13.5590277777778 22  10.9427083333333 22  C 9.54861111111111 22  8.19986979166667 21.7374131944444  6.896484375 21.2122395833333  C 5.59309895833333 20.6870659722222  4.43055555555556 19.9375  3.40885416666667 18.9635416666667  L 1.56119791666667 20.8111979166667  C 1.37977430555556 20.9926215277778  1.16493055555556 21.0833333333333  0.916666666666667 21.0833333333333  C 0.668402777777778 21.0833333333333  0.453559027777778 20.9926215277778  0.272135416666667 20.8111979166667  C 0.0907118055555556 20.6297743055556  0 20.4149305555556  0 20.1666666666667  L 0 13.75  C 0 13.5017361111111  0.0907118055555556 13.2868923611111  0.272135416666667 13.10546875  C 0.453559027777778 12.9240451388889  0.668402777777778 12.8333333333333  0.916666666666667 12.8333333333333  L 7.33333333333333 12.8333333333333  C 7.58159722222222 12.8333333333333  7.79644097222222 12.9240451388889  7.97786458333333 13.10546875  C 8.15928819444445 13.2868923611111  8.25 13.5017361111111  8.25 13.75  C 8.25 13.9982638888889  8.15928819444445 14.2131076388889  7.97786458333333 14.39453125  L 6.015625 16.3567708333333  C 6.69357638888889 16.9869791666667  7.46223958333333 17.4739583333333  8.32161458333333 17.8177083333333  C 9.18098958333333 18.1614583333333  10.0737847222222 18.3333333333333  11 18.3333333333333  C 12.2795138888889 18.3333333333333  13.4730902777778 18.0230034722222  14.5807291666667 17.40234375  C 15.6883680555556 16.7816840277778  16.5763888888889 15.9270833333333  17.2447916666667 14.8385416666667  C 17.3498263888889 14.6762152777778  17.6028645833333 14.1176215277778  18.00390625 13.1627604166667  C 18.0802951388889 12.9431423611111  18.2235243055556 12.8333333333333  18.43359375 12.8333333333333  L 21.18359375 12.8333333333333  C 21.3077256944444 12.8333333333333  21.4151475694444 12.8786892361111  21.505859375 12.9694010416667  Z M 21.7278645833333 1.18880208333333  C 21.9092881944444 1.37022569444444  22 1.58506944444444  22 1.83333333333333  L 22 8.25  C 22 8.49826388888889  21.9092881944444 8.71310763888889  21.7278645833333 8.89453125  C 21.5464409722222 9.07595486111111  21.3315972222222 9.16666666666667  21.0833333333333 9.16666666666667  L 14.6666666666667 9.16666666666667  C 14.4184027777778 9.16666666666667  14.2035590277778 9.07595486111111  14.0221354166667 8.89453125  C 13.8407118055556 8.71310763888889  13.75 8.49826388888889  13.75 8.25  C 13.75 8.00173611111111  13.8407118055556 7.78689236111111  14.0221354166667 7.60546875  L 15.9986979166667 5.62890625  C 14.5855034722222 4.32074652777778  12.9192708333333 3.66666666666667  11 3.66666666666667  C 9.72048611111111 3.66666666666667  8.52690972222222 3.97699652777778  7.41927083333333 4.59765625  C 6.31163194444445 5.21831597222222  5.42361111111111 6.07291666666667  4.75520833333333 7.16145833333333  C 4.65017361111111 7.32378472222222  4.39713541666667 7.88237847222222  3.99609375 8.83723958333333  C 3.91970486111111 9.05685763888889  3.77647569444445 9.16666666666667  3.56640625 9.16666666666667  L 0.716145833333333 9.16666666666667  C 0.592013888888889 9.16666666666667  0.484592013888889 9.12131076388889  0.393880208333333 9.03059895833333  C 0.303168402777778 8.93988715277778  0.2578125 8.83246527777778  0.2578125 8.70833333333333  L 0.2578125 8.60807291666667  C 0.878472222222222 6.04904513888889  2.16753472222222 3.974609375  4.125 2.384765625  C 6.08246527777778 0.794921875  8.37413194444445 0  11 0  C 12.3940972222222 0  13.75 0.264973958333334  15.0677083333333 0.794921875  C 16.3854166666667 1.32486979166667  17.5551215277778 2.07204861111111  18.5768229166667 3.03645833333333  L 20.4388020833333 1.18880208333333  C 20.6202256944444 1.00737847222222  20.8350694444444 0.916666666666666  21.0833333333333 0.916666666666666  C 21.3315972222222 0.916666666666666  21.5464409722222 1.00737847222222  21.7278645833333 1.18880208333333  Z " fill-rule="nonzero" fill="#555555" stroke="none" transform="matrix(1 0 0 1 1641 22 )" />
  </g>
</svg>