<?xml version="1.0" standalone="no"?><!DOCTYPE svg PUBLIC "-//W3C//DTD SVG 1.1//EN" "http://www.w3.org/Graphics/SVG/1.1/DTD/svg11.dtd"><svg t="1597200134887" class="icon" viewBox="0 0 1024 1024" version="1.1" xmlns="http://www.w3.org/2000/svg" p-id="5032" xmlns:xlink="http://www.w3.org/1999/xlink" width="128" height="128"><defs><style type="text/css"></style></defs><path d="M810.667 640a64 64 0 0 1 64 64v128a64 64 0 0 1-64 64H661.333a64 64 0 0 1-64-64V704a64 64 0 0 1 64-64h149.334z m-512-448h42.666v63.979l-42.666 0.021v533.333h256v64h-256a64 64 0 0 1-64-64V256a64 64 0 0 1 64-64z m512 512H661.333v128h149.334V704z m-21.334 32v64H683.435v-64h105.898z m-64-544a64 64 0 0 1 64 64v341.333h-64V256h-42.666v-64h42.666zM554.667 533.333v64h-192v-64h192z m106.666-128v64H362.667v-64h298.666zM576 128a64 64 0 0 1 64 64v42.667a64 64 0 0 1-64 64H448a64 64 0 0 1-64-64V192a64 64 0 0 1 64-64h128z m0 64H448v42.667h128V192z" p-id="5033"></path></svg>