<?xml version="1.0" standalone="no"?><!DOCTYPE svg PUBLIC "-//W3C//DTD SVG 1.1//EN" "http://www.w3.org/Graphics/SVG/1.1/DTD/svg11.dtd"><svg t="1597196918331" class="icon" viewBox="0 0 1024 1024" version="1.1" xmlns="http://www.w3.org/2000/svg" p-id="1265" xmlns:xlink="http://www.w3.org/1999/xlink" width="128" height="128"><defs><style type="text/css"></style></defs><path d="M617.216 170.667c114.24 0 206.87 92.608 206.87 206.869 0 72.533-37.334 136.32-93.803 173.27L899.029 747.69a64 64 0 0 1-48.597 105.642l-101.888 0.022c11.221-19.414 14.293-42.496 8.747-64l93.141-0.022L634.24 537.11l60.992-39.872a142.87 142.87 0 0 0-75.584-262.549 251.264 251.264 0 0 0-55.424-57.173 206.976 206.976 0 0 1 52.992-6.848z m-61.163 412.757l140.8 164.267a64 64 0 0 1-48.64 105.642H181.824a64 64 0 0 1-48.597-105.642l140.8-164.267a248.836 248.836 0 0 0 58.773 29.781L181.824 789.333h466.41L497.238 613.205a248.325 248.325 0 0 0 58.816-29.781zM415.04 170.667c114.24 0 206.87 92.608 206.87 206.869 0 114.24-92.63 206.87-206.87 206.87-114.261 0-206.87-92.63-206.87-206.87 0-114.261 92.609-206.87 206.87-206.87z m0 64a142.87 142.87 0 1 0 0 285.738 142.87 142.87 0 0 0 0-285.738z" p-id="1266"></path></svg>