<?xml version="1.0" standalone="no"?><!DOCTYPE svg PUBLIC "-//W3C//DTD SVG 1.1//EN" "http://www.w3.org/Graphics/SVG/1.1/DTD/svg11.dtd"><svg t="1597222950649" class="icon" viewBox="0 0 1024 1024" version="1.1" xmlns="http://www.w3.org/2000/svg" p-id="1390" xmlns:xlink="http://www.w3.org/1999/xlink" width="128" height="128"><defs><style type="text/css"></style></defs><path d="M817.365 213.333a64 64 0 0 1 64 64v469.334a64 64 0 0 1-64 64H220.032a64 64 0 0 1-64-64V277.333a64 64 0 0 1 64-64h597.333z m0 64H220.032v469.334h597.333V277.333z m-70.698 93.782v63.957c-100.608-1.45-163.307 30.293-193.494 94.23l-2.304 5.12-2.858 6.357C504 635.925 418.923 683.243 298.688 681.62v-64c96.235 1.6 157.93-32.384 190.933-103.04l2.539-5.632 2.624-5.845c41.664-89.664 127.488-133.333 251.883-131.99zM348.97 353.877a42.667 42.667 0 1 1 0 85.334 42.667 42.667 0 0 1 0-85.334z" p-id="1391"></path></svg>