<?xml version="1.0" standalone="no"?><!DOCTYPE svg PUBLIC "-//W3C//DTD SVG 1.1//EN" "http://www.w3.org/Graphics/SVG/1.1/DTD/svg11.dtd"><svg t="1597202385907" class="icon" viewBox="0 0 1024 1024" version="1.1" xmlns="http://www.w3.org/2000/svg" p-id="6686" xmlns:xlink="http://www.w3.org/1999/xlink" width="128" height="128"><defs><style type="text/css"></style></defs><path d="M778.176 810.667v64h-160v-64h160zM332.672 597.973a274.449 274.449 0 0 0 60.16 28.203l-158.165 184.49h287.509v64h-287.51a64 64 0 0 1-48.597-105.642l146.603-171.05zM842.176 704v64h-224v-64h224z m0-106.667v64h-224v-64h224z m-362.667-448c117.824 0 213.334 95.51 213.334 213.334S597.333 576 479.509 576s-213.333-95.51-213.333-213.333 95.51-213.334 213.333-213.334z m0 64a149.333 149.333 0 1 0 0 298.667 149.333 149.333 0 0 0 0-298.667z" p-id="6687"></path></svg>