<?xml version="1.0" standalone="no"?><!DOCTYPE svg PUBLIC "-//W3C//DTD SVG 1.1//EN" "http://www.w3.org/Graphics/SVG/1.1/DTD/svg11.dtd"><svg t="1597199989945" class="icon" viewBox="0 0 1024 1024" version="1.1" xmlns="http://www.w3.org/2000/svg" p-id="4754" xmlns:xlink="http://www.w3.org/1999/xlink" width="128" height="128"><defs><style type="text/css"></style></defs><path d="M175.893 769.024l146.603-171.05a277.026 277.026 0 0 0 60.117 28.202l-158.122 184.49h330.176v64H224.49a64 64 0 0 1-48.598-105.642l146.603-171.05zM746.667 640v85.333H832v64h-85.333v85.334h-64v-85.334h-85.334v-64h85.334V640h64zM469.333 149.333c117.824 0 213.334 95.51 213.334 213.334S587.157 576 469.333 576 256 480.49 256 362.667s95.51-213.334 213.333-213.334z m0 64a149.333 149.333 0 1 0 0 298.667 149.333 149.333 0 0 0 0-298.667z" p-id="4755"></path></svg>