<?xml version="1.0" standalone="no"?><!DOCTYPE svg PUBLIC "-//W3C//DTD SVG 1.1//EN" "http://www.w3.org/Graphics/SVG/1.1/DTD/svg11.dtd"><svg t="1597198491262" class="icon" viewBox="0 0 1024 1024" version="1.1" xmlns="http://www.w3.org/2000/svg" p-id="2238" xmlns:xlink="http://www.w3.org/1999/xlink" width="128" height="128"><defs><style type="text/css"></style></defs><path d="M746.667 149.333a64 64 0 0 1 64 64v181.334a64 64 0 0 1 64 64v49.664l-64 58.496v-87.574L571.563 676.63a95.979 95.979 0 0 1-117.632 3.051l-3.84-2.987-236.758-192V800h372.331l62.805 64H213.333a64 64 0 0 1-64-64V458.667a64 64 0 0 1 64-64V213.333a64 64 0 0 1 64-64h469.334z m126.869 467.862l44.928 45.61-174.08 171.456-105.536-104.106 44.97-45.568 60.587 59.818 129.131-127.21z m-126.87-403.862H277.334v240.854l213.184 172.906a32 32 0 0 0 37.846 1.984l2.56-1.92L746.667 449.11V213.333z m-149.333 192v64H362.667v-64h234.666z m64-128v64H362.667v-64h298.666z" p-id="2239"></path></svg>