<?xml version="1.0" standalone="no"?><!DOCTYPE svg PUBLIC "-//W3C//DTD SVG 1.1//EN" "http://www.w3.org/Graphics/SVG/1.1/DTD/svg11.dtd"><svg t="1597198818730" class="icon" viewBox="0 0 1024 1024" version="1.1" xmlns="http://www.w3.org/2000/svg" p-id="4059" xmlns:xlink="http://www.w3.org/1999/xlink" width="128" height="128"><defs><style type="text/css"></style></defs><path d="M576 384a64 64 0 0 1 64 64v341.333a64 64 0 0 1-64 64H234.667a64 64 0 0 1-64-64V448a64 64 0 0 1 64-64H576z m0 64H234.667v341.333H576V448z m-64 192v64H298.667v-64H512z m277.333-469.333a64 64 0 0 1 64 64V576a64 64 0 0 1-64 64H682.667v-64h106.666V234.667H448v106.666h-64V234.667a64 64 0 0 1 64-64h341.333zM512 533.333v64H298.667v-64H512z" p-id="4060"></path></svg>