<?xml version="1.0" standalone="no"?><!DOCTYPE svg PUBLIC "-//W3C//DTD SVG 1.1//EN" "http://www.w3.org/Graphics/SVG/1.1/DTD/svg11.dtd"><svg t="1597198045218" class="icon" viewBox="0 0 1024 1024" version="1.1" xmlns="http://www.w3.org/2000/svg" p-id="1682" xmlns:xlink="http://www.w3.org/1999/xlink" width="128" height="128"><defs><style type="text/css"></style></defs><path d="M490.667 533.333v256a64 64 0 0 1-64 64h-192a64 64 0 0 1-64-64v-192a64 64 0 0 1 64-64h256z m298.666 0a64 64 0 0 1 64 64v192a64 64 0 0 1-64 64h-192a64 64 0 0 1-64-64v-256h256z m-362.666 64h-192v192h192v-192z m362.666 0h-192v192h192v-192zM426.667 170.667a64 64 0 0 1 64 64v256h-256a64 64 0 0 1-64-64v-192a64 64 0 0 1 64-64h192z m266.666 0a160 160 0 1 1 0 320 160 160 0 0 1 0-320z m-266.666 64h-192v192h192v-192z m266.666 0a96 96 0 1 0 0 192 96 96 0 0 0 0-192z" p-id="1683"></path></svg>