<?xml version="1.0" standalone="no"?><!DOCTYPE svg PUBLIC "-//W3C//DTD SVG 1.1//EN" "http://www.w3.org/Graphics/SVG/1.1/DTD/svg11.dtd"><svg t="1597201237900" class="icon" viewBox="0 0 1024 1024" version="1.1" xmlns="http://www.w3.org/2000/svg" p-id="5582" xmlns:xlink="http://www.w3.org/1999/xlink" width="128" height="128"><defs><style type="text/css"></style></defs><path d="M789.333 170.667a64 64 0 0 1 64 64v554.666a64 64 0 0 1-64 64H234.667a64 64 0 0 1-64-64V234.667a64 64 0 0 1 64-64h554.666z m0 277.333H234.667v341.333h554.666V448z m-224 213.333v64H298.667v-64h266.666z m160 0v64H618.667v-64h106.666z m-320-128v64H298.667v-64h106.666z m160 0v64H458.667v-64h106.666z m160 0v64H618.667v-64h106.666z m64-298.666H234.667V384h554.666V234.667z" p-id="5583"></path></svg>