<?xml version="1.0" standalone="no"?><!DOCTYPE svg PUBLIC "-//W3C//DTD SVG 1.1//EN" "http://www.w3.org/Graphics/SVG/1.1/DTD/svg11.dtd"><svg t="1597200417899" class="icon" viewBox="0 0 1024 1024" version="1.1" xmlns="http://www.w3.org/2000/svg" p-id="5308" xmlns:xlink="http://www.w3.org/1999/xlink" width="128" height="128"><defs><style type="text/css"></style></defs><path d="M725.333 213.333v64h21.312-511.978v469.334h512V511.979l64 0.021v-64.043 298.71a64 64 0 0 1-64 64h-512a64 64 0 0 1-64-64V277.333a64 64 0 0 1 64-64h490.666z m105.152 41.6l45.696 44.8-315.626 322.091-156.843-161.365 45.91-44.608 111.125 114.346 269.738-275.264z m-41.173-25.301c0.896 0.79 1.75 1.6 2.581 2.432l-2.56 2.581v-5.013z" p-id="5309"></path></svg>