<?xml version="1.0" standalone="no"?><!DOCTYPE svg PUBLIC "-//W3C//DTD SVG 1.1//EN" "http://www.w3.org/Graphics/SVG/1.1/DTD/svg11.dtd"><svg t="1597199178265" class="icon" viewBox="0 0 1024 1024" version="1.1" xmlns="http://www.w3.org/2000/svg" p-id="4615" xmlns:xlink="http://www.w3.org/1999/xlink" width="128" height="128"><defs><style type="text/css"></style></defs><path d="M234.667 213.333h57.706v63.979l-57.706 0.021V384h554.666V277.333h-55.232v-64h55.232a64 64 0 0 1 64 64v512a64 64 0 0 1-64 64H234.667a64 64 0 0 1-64-64v-512a64 64 0 0 1 64-64zM789.333 448H234.667v341.333h554.666V448z m-384 192v64H298.667v-64h106.666z m160 0v64H458.667v-64h106.666z m160 0v64H618.667v-64h106.666z m-320-128v64H298.667v-64h106.666z m160 0v64H458.667v-64h106.666z m160 0v64H618.667v-64h106.666z m-27.605-341.333v106.666h-64.021V170.667h64z m-104.17 42.666v64l-160.62-0.021v-63.979h160.62z m-197.014-42.666v106.666h-64V170.667h64z" p-id="4616"></path></svg>