<?xml version="1.0" standalone="no"?><!DOCTYPE svg PUBLIC "-//W3C//DTD SVG 1.1//EN" "http://www.w3.org/Graphics/SVG/1.1/DTD/svg11.dtd"><svg t="1605321867711" class="icon" viewBox="0 0 1024 1024" version="1.1" xmlns="http://www.w3.org/2000/svg" p-id="1235" xmlns:xlink="http://www.w3.org/1999/xlink" width="200" height="200"><defs><style type="text/css"></style></defs><path d="M600.2688 320c-21.69344 0-42.43968 5.6576-59.7248 16.20992-34.68288 19.56352-55.39328 53.95456-55.39328 92.00128v170.01984c0 16.5888-9.72288 32.09216-25.90208 41.39008a64.1024 64.1024 0 0 1-31.45216 8.2176c-31.62112 0-57.344-22.25664-57.344-49.68448a42.86976 42.86976 0 0 1 6.48192-23.00416c6.63552-11.17696 18.688-19.87072 33.93536-24.47872l0.72704-0.256c0.43008-0.16896 0.70656-0.16896 1.64864-0.16896a28.91264 28.91264 0 0 0 20.49536-8.72448c5.44256-5.5552 8.3968-12.89728 8.30464-20.2496l0.00512-0.83456c-0.1536-15.872-13.19936-28.78464-29.30176-28.78464-5.69344 0-11.33568 0.91648-19.64544 3.21536-28.07296 8.34048-51.54816 26.05568-66.16064 49.9712-9.86112 16.6144-15.07328 35.07712-15.07328 53.39136 0 59.66336 52.00384 108.2112 115.93216 108.2112 21.248 0 42.05568-5.47328 60.11904-15.80032 34.69824-19.56352 55.41376-53.95968 55.41376-92.0064V428.2112c0-16.60416 9.71776-32.1024 25.89696-41.38496a64.10752 64.10752 0 0 1 31.4368-8.22272c31.39584 0 56.9344 22.25664 56.9344 49.60768 0 8.38656-2.14528 16.1024-6.51776 23.18336-6.6048 11.46368-18.57024 20.10112-33.69472 24.32l-0.8704 0.29184c-0.46592 0.18432-0.74752 0.18432-1.69984 0.18432-16.03072 0.16896-28.94848 13.34784-28.8 29.80352 0.16384 15.88224 13.21984 28.8 29.29664 28.8 5.92384 0 12.15488-1.024 19.6352-3.2256 28.06784-8.33536 51.54816-26.05056 66.16576-49.9712 9.87648-16.60416 15.09376-35.06688 15.09376-53.39136-0.00512-59.66336-52.01408-108.20608-115.9424-108.20608z" p-id="1236"></path><path d="M512 136.96c-206.80192 0-375.04 168.2432-375.04 375.04 0 206.80192 168.23808 375.04 375.04 375.04s375.04-168.23808 375.04-375.04c0-206.7968-168.23808-375.04-375.04-375.04z m0 686.40256c-171.68384 0-311.36256-139.6736-311.36256-311.36256S340.31616 200.64256 512 200.64256s311.36256 139.6736 311.36256 311.36256-139.67872 311.35744-311.36256 311.35744z" p-id="1237"></path></svg>