<?xml version="1.0" standalone="no"?><!DOCTYPE svg PUBLIC "-//W3C//DTD SVG 1.1//EN" "http://www.w3.org/Graphics/SVG/1.1/DTD/svg11.dtd"><svg t="1597201985020" class="icon" viewBox="0 0 1024 1024" version="1.1" xmlns="http://www.w3.org/2000/svg" p-id="5995" xmlns:xlink="http://www.w3.org/1999/xlink" width="128" height="128"><defs><style type="text/css"></style></defs><path d="M830.784 489.301l45.099 45.398-322.283 320-14.656-14.763 14.741 14.89h-45.013v-45.375l-0.15-0.15 322.262-320z m-84.117-318.634a64 64 0 0 1 64 64v192l-64 64v-256H277.333v554.666H448l-64 64H277.333a64 64 0 0 1-64-64V234.667a64 64 0 0 1 64-64h469.334z m-213.334 256v64H362.667v-64h170.666z m128-128v64H362.667v-64h298.666z" p-id="5996"></path></svg>