<?xml version="1.0" standalone="no"?><!DOCTYPE svg PUBLIC "-//W3C//DTD SVG 1.1//EN" "http://www.w3.org/Graphics/SVG/1.1/DTD/svg11.dtd"><svg t="1599721485241" class="icon" viewBox="0 0 1024 1024" version="1.1" xmlns="http://www.w3.org/2000/svg" p-id="1447" xmlns:xlink="http://www.w3.org/1999/xlink" width="128" height="128"><defs><style type="text/css"></style></defs><path d="M57.437441 826.581373v-210.904985c0-54.186265 44.252117-98.438382 98.438382-98.438382h49.670743c144.978363-1.806209 222.163688-9.934149 229.388523-23.962371l110.17874-151.721543a41.121355 41.121355 0 0 1 33.896519-18.062088c7.706491 0 15.352775 2.287865 22.156162 6.803386l7.646284 5.840076a39.134525 39.134525 0 0 1 6.321731 55.571025c-40.639699 55.510818-116.921919 160.270931-118.728128 162.07714v0.481656c-1.38476 9.031044-14.028222 27.514581-28.056444 31.126999l-130.950141 31.187206v210.001881c0 54.186265-44.252117 98.438382-98.438382 98.438382h-83.085607c-54.186265 0-98.438382-44.252117-98.438382-98.438382z m350.464723 26.129822h517.900282c16.677328 0 30.284102 13.546566 30.284102 30.284101v11.740358a30.284102 30.284102 0 0 1-30.284102 30.223894h-545.475071c14.449671-21.19285 23.962371-45.57667 27.574789-72.248353z m1.806209-72.248354v-105.663217l75.379115-18.062089 1.38476-0.421448c34.317968-9.031044 61.832549-37.930386 74.476012-66.829728 12.161806-16.737535 41.121355-55.571025 112.406397-153.527751 17.64064-23.059266 25.768579-51.958608 22.156161-81.279398a110.35936 110.35936 0 0 0-41.964252-75.439323l-9.934148-8.12794-2.287865-1.324553a111.382879 111.382879 0 0 0-61.832549-18.543744c-37.508937 0-71.826905 18.062088-93.019756 48.767639L387.973659 435.055503c-9.934149 1.806209-27.514581 4.033866-57.317027 5.840076 18.965193-29.802446 29.802446-65.023518 29.802446-102.472249 0-104.338664-85.79492-189.23048-190.555033-189.23048-12.222013 0-23.902164 1.38476-35.642521 3.612418v-13.546566c0-29.802446 24.323612-54.186265 54.186265-54.186265h713.452493c29.802446 0 54.186265 24.383819 54.186266 54.186265v587.017874c0 29.862653-24.383819 54.186265-54.186266 54.186265h-25.347131v-54.667921a8.067733 8.067733 0 0 0-8.007525-8.007526h-154.190029a8.067733 8.067733 0 0 0-8.007526 8.007526v54.667921H409.708373zM171.228598 456.308561l0.060207-0.060207a119.149577 119.149577 0 0 1-118.366886-117.403575c0-64.541863 52.440263-116.921919 116.982126-116.921919 65.023518 0 118.306679 52.380056 118.306679 116.921919a117.403575 117.403575 0 0 1-116.982126 117.463782z" fill="#FFFFFF" p-id="1448"></path></svg>