<?xml version="1.0" standalone="no"?><!DOCTYPE svg PUBLIC "-//W3C//DTD SVG 1.1//EN" "http://www.w3.org/Graphics/SVG/1.1/DTD/svg11.dtd"><svg t="1599722431850" class="icon" viewBox="0 0 1024 1024" version="1.1" xmlns="http://www.w3.org/2000/svg" p-id="2128" xmlns:xlink="http://www.w3.org/1999/xlink" width="128" height="128"><defs><style type="text/css"></style></defs><path d="M286.016 454.976a200.512 200.512 0 1 0 0-401.024 200.512 200.512 0 0 0 0 401.024z m0-76.8a123.712 123.712 0 1 1 0-247.424 123.712 123.712 0 0 1 0 247.424zM375.296 973.696a175.104 175.104 0 1 0 0-350.272 175.104 175.104 0 0 0 0 350.272z m0-76.8a98.304 98.304 0 1 1 0-196.672 98.304 98.304 0 0 1 0 196.672zM805.824 700.224a195.968 195.968 0 1 0 0-391.936 195.968 195.968 0 0 0 0 391.936z m0-76.8a119.168 119.168 0 1 1 0-238.336 119.168 119.168 0 0 1 0 238.336z" p-id="2129" fill="#FFFFFF"></path><path d="M400.96 382.08l232.32 98.56 29.952-70.72-232.192-98.56zM280.96 421.376l30.976 245.312 76.16-9.664-30.976-245.248z" p-id="2130" fill="#FFFFFF"></path></svg>