<?xml version="1.0" standalone="no"?><!DOCTYPE svg PUBLIC "-//W3C//DTD SVG 1.1//EN" "http://www.w3.org/Graphics/SVG/1.1/DTD/svg11.dtd"><svg t="1597198304766" class="icon" viewBox="0 0 1024 1024" version="1.1" xmlns="http://www.w3.org/2000/svg" p-id="1821" xmlns:xlink="http://www.w3.org/1999/xlink" width="128" height="128"><defs><style type="text/css"></style></defs><path d="M168.107 621.44l120.746 57.963L512.128 787.54l215.317-104.32 128.768-61.674a64 64 0 0 1-29.952 84.97L540.032 845.141a64 64 0 0 1-55.808 0l-286.23-138.624a64 64 0 0 1-29.887-85.077z m687.829-133.93a64 64 0 0 1-29.675 85.546L540.011 711.68a64 64 0 0 1-55.808 0L197.995 573.056a64 64 0 0 1-31.168-82.176L483.84 640.405l28.288 13.696 286.23-138.624-0.15-0.064 57.728-27.882zM540.032 185.791L826.24 324.395a64 64 0 0 1 0 115.2L540.032 578.219a64 64 0 0 1-55.808 0l-286.23-138.624a64 64 0 0 1 0-115.2l286.23-138.582a64 64 0 0 1 55.808 0z m-27.904 57.6l-286.23 138.603 286.23 138.624 286.23-138.624-286.23-138.603z" p-id="1822"></path></svg>