<?xml version="1.0" standalone="no"?><!DOCTYPE svg PUBLIC "-//W3C//DTD SVG 1.1//EN" "http://www.w3.org/Graphics/SVG/1.1/DTD/svg11.dtd"><svg t="1599722538365" class="icon" viewBox="0 0 1024 1024" version="1.1" xmlns="http://www.w3.org/2000/svg" p-id="3072" xmlns:xlink="http://www.w3.org/1999/xlink" width="128" height="128"><defs><style type="text/css"></style></defs><path d="M510.941317 416.625364c-108.786694 0-197.135967-92.181289-197.135967-205.864449 0-113.25738 88.562162-205.438669 197.135967-205.43867s197.135967 92.181289 197.135966 205.65156-88.562162 205.651559-197.135966 205.651559z m5.109355-63.866944c71.105198-2.980457 128.159667-65.357173 128.159668-141.784615 0-78.130561-59.822037-141.784615-133.269023-141.784616S377.459404 132.630353 377.459404 210.760915c0 78.343451 59.822037 141.997505 133.269023 141.997505h5.322245zM850.287678 1024H171.382065a27.675676 27.675676 0 0 1-26.824116-28.101455V657.616632c0-15.328067 11.92183-28.101455 26.824116-28.101455h678.905613c14.902287 0 27.037006 12.560499 27.037007 28.101455v338.281913c0.21289 15.115177-11.92183 27.675676-27.037007 28.101455z m-37.042827-63.866944V693.382121H208.424893V960.133056h604.819958z" fill="#bfbfbf"  p-id="3073"></path><path d="M989.943396 693.382121h-958.004158c-17.669854 0-31.933472-14.263617-31.933472-31.933472s14.263617-31.933472 31.933472-31.933472h958.004158c17.669854 0 31.933472 14.263617 31.933472 31.933472s-14.476507 31.933472-31.933472 31.933472z" fill="#bfbfbf"  p-id="3074"></path><path d="M991.007845 283.782121L804.942148 642.927235c-8.089813 15.753846-27.462786 21.714761-43.003742 13.624948a31.848316 31.848316 0 0 1-13.624948-43.003742l186.065697-359.145115c8.089813-15.753846 27.462786-21.714761 43.003742-13.624948 15.753846 8.089813 21.714761 27.249896 13.624948 43.003743z" fill="#bfbfbf"  p-id="3075"></path><path d="M787.698073 629.515177h-63.866943c0-117.302287-95.587526-212.889813-212.889813-212.889813s-212.889813 95.587526-212.889813 212.889813h-63.866944c0-152.641996 124.114761-276.756757 276.756757-276.756757s276.756757 124.114761 276.756756 276.756757z" fill="#bfbfbf"  p-id="3076"></path></svg>