<?xml version="1.0" standalone="no"?><!DOCTYPE svg PUBLIC "-//W3C//DTD SVG 1.1//EN" "http://www.w3.org/Graphics/SVG/1.1/DTD/svg11.dtd"><svg t="1597198874854" class="icon" viewBox="0 0 1024 1024" version="1.1" xmlns="http://www.w3.org/2000/svg" p-id="4198" xmlns:xlink="http://www.w3.org/1999/xlink" width="128" height="128"><defs><style type="text/css"></style></defs><path d="M619.712 198.187V801.45h44.544v-0.854h102.763V446.08l-102.763-36.181V342.08l144.576 50.88a48.723 48.723 0 0 1 22.037 37.077l0.15 3.798-0.022 367.594h48.918v64H213.46v-64h48.64l0.022-489.493c0-16.81 8.661-32.427 22.912-41.365L545.088 156.8c32.49-20.288 74.624 3.05 74.624 41.344z m-64 23.85l-229.59 100.438v478.101h229.611V533.461l-0.426 0.192v-29.61l0.426 1.002V381.867l-0.426 0.192v-29.526l0.426 0.982V222.037zM512.32 482.176v69.227l-142.763 58.965V541.12l142.763-58.944z m0-151.36v69.525L369.557 461.1v-69.547l142.763-60.736z" p-id="4199"></path></svg>