<?xml version="1.0" standalone="no"?><!DOCTYPE svg PUBLIC "-//W3C//DTD SVG 1.1//EN" "http://www.w3.org/Graphics/SVG/1.1/DTD/svg11.dtd"><svg t="1597198953072" class="icon" viewBox="0 0 1024 1024" version="1.1" xmlns="http://www.w3.org/2000/svg" p-id="4337" xmlns:xlink="http://www.w3.org/1999/xlink" width="128" height="128"><defs><style type="text/css"></style></defs><path d="M774.55 618.667a64 64 0 0 1 55.445 32l37.696 65.322a64 64 0 0 1 0 64l-37.696 65.323a64 64 0 0 1-55.446 32h-75.413a64 64 0 0 1-55.445-32l-37.696-65.323a64 64 0 0 1 0-64l37.696-65.322a64 64 0 0 1 55.445-32h75.413z m-385.153-37.078a254.331 254.331 0 0 0 61.227 26.944l-173.29 202.134h272.49l0.725 1.322 36.182 62.678H277.333a64 64 0 0 1-48.597-105.643l160.661-187.435zM774.55 682.667h-75.413l-37.717 65.322 37.717 65.323h75.413l37.718-65.323-37.718-65.322z m-39.04 32.554a32 32 0 1 1 0 64 32 32 0 0 1 0-64zM522.176 149.333c117.824 0 213.333 95.51 213.333 213.334S640 576 522.176 576s-213.333-95.51-213.333-213.333 95.509-213.334 213.333-213.334z m0 64a149.333 149.333 0 1 0 0 298.667 149.333 149.333 0 0 0 0-298.667z" p-id="4338"></path></svg>