<?xml version="1.0" standalone="no"?><!DOCTYPE svg PUBLIC "-//W3C//DTD SVG 1.1//EN" "http://www.w3.org/Graphics/SVG/1.1/DTD/svg11.dtd"><svg t="1630380025931" class="icon" viewBox="0 0 1024 1024" version="1.1" xmlns="http://www.w3.org/2000/svg" p-id="13866" width="64" height="64"><path d="M512 0C229.262222 0 0 229.148444 0 512s229.148444 512 512 512 512-229.148444 512-512S794.737778 0 512 0z m309.703111 390.343111L478.151111 733.895111a45.880889 45.880889 0 0 1-65.109333 0L244.48 565.475556a45.880889 45.880889 0 0 1 0-65.080889 45.880889 45.880889 0 0 1 65.109333 0l135.879111 135.879111 310.897778-310.869334a45.880889 45.880889 0 0 1 65.080889 0c18.204444 17.806222 18.204444 47.047111 0.256 64.967112z" fill="#01BF7E" p-id="13867"></path></svg>