<?xml version="1.0" standalone="no"?><!DOCTYPE svg PUBLIC "-//W3C//DTD SVG 1.1//EN" "http://www.w3.org/Graphics/SVG/1.1/DTD/svg11.dtd"><svg t="1597200078913" class="icon" viewBox="0 0 1024 1024" version="1.1" xmlns="http://www.w3.org/2000/svg" p-id="4893" xmlns:xlink="http://www.w3.org/1999/xlink" width="128" height="128"><defs><style type="text/css"></style></defs><path d="M789.333 620.31a64 64 0 0 1 64 64v192l-128-48-128 48v-192a64 64 0 0 1 64-64h128zM218.56 769.002l146.603-171.03a277.026 277.026 0 0 0 60.117 28.203l-158.123 184.49h287.51v64h-287.51a64 64 0 0 1-48.597-105.642l146.603-171.05z m570.773-84.672h-128v99.626l64-23.978 64 24V684.33zM512 149.333c117.824 0 213.333 95.51 213.333 213.334S629.824 576 512 576s-213.333-95.51-213.333-213.333S394.176 149.333 512 149.333z m0 64A149.333 149.333 0 1 0 512 512a149.333 149.333 0 0 0 0-298.667z" p-id="4894"></path></svg>