<?xml version="1.0" standalone="no"?><!DOCTYPE svg PUBLIC "-//W3C//DTD SVG 1.1//EN" "http://www.w3.org/Graphics/SVG/1.1/DTD/svg11.dtd"><svg t="1597200853084" class="icon" viewBox="0 0 1024 1024" version="1.1" xmlns="http://www.w3.org/2000/svg" p-id="5445" xmlns:xlink="http://www.w3.org/1999/xlink" width="128" height="128"><defs><style type="text/css"></style></defs><path d="M460.65 192a64 64 0 0 1 62.486 50.133L526.229 256h263.104a64 64 0 0 1 64 64v448a64 64 0 0 1-64 64H234.667a64 64 0 0 1-64-64V256a64 64 0 0 1 64-64H460.65z m0 64H234.668v512h554.666V426.667h-290.73L460.65 256z m286.017 384v64H277.333v-64h469.334z m42.666-320H540.437l9.494 42.667h239.402V320z" p-id="5446"></path></svg>