<?xml version="1.0" standalone="no"?><!DOCTYPE svg PUBLIC "-//W3C//DTD SVG 1.1//EN" "http://www.w3.org/Graphics/SVG/1.1/DTD/svg11.dtd"><svg t="1597202047820" class="icon" viewBox="0 0 1024 1024" version="1.1" xmlns="http://www.w3.org/2000/svg" p-id="6132" xmlns:xlink="http://www.w3.org/1999/xlink" width="128" height="128"><defs><style type="text/css"></style></defs><path d="M268.594 186.195a64 64 0 0 1 90.51 0l147.62 147.651 156.356-151.95a64 64 0 0 1 89.861 0.648L854.84 284.443a64 64 0 0 1 2.58 87.78l-3.244 3.363L699.148 526.27 818.35 645.44a64 64 0 0 1 0 90.51l-101.898 101.9a64 64 0 0 1-90.51 0L503.979 715.947l-82.273 79.98-151.574 51.802a64 64 0 0 1-82.801-76.043l41.951-168.182 82.289-79.966-144.876-144.936a64 64 0 0 1 0-90.51l101.899-101.898z m281.258 485.147l33.972 33.97 64.744-64.744 45.255 45.255-64.714 64.715 42.087 42.087L773.11 690.71 653.245 570.876 549.852 671.342z m79.74-367.68l100.782 103.014 79.211-76.978-101.899-101.899-78.08 75.847z m-342.625 333.03l-37.531 150.487 137.967-47.156 297.067-288.74-100.782-103.016-296.721 288.424z m26.881-405.242L211.95 333.348l42.041 42.072 64.715-64.714 45.255 45.255-64.715 64.714 58.213 58.243 103.377-100.45L313.848 231.45z" p-id="6133"></path></svg>